HIERARCHY
ROOT mixamorig:Hips
{
	OFFSET -0.000008 104.274872 1.554316
	CHANNELS 6 Xposition Yposition Zposition Xrotation Yrotation Zrotation
	JOINT mixamorig:Spine
	{
		OFFSET -0.000005 10.181595 0.131519
		CHANNELS 6 Xposition Yposition Zposition Xrotation Yrotation Zrotation
		JOINT mixamorig:Spine1
		{
			OFFSET -0.000000 9.893959 -1.470707
			CHANNELS 6 Xposition Yposition Zposition Xrotation Yrotation Zrotation
			JOINT mixamorig:Spine2
			{
				OFFSET -0.000000 9.220757 -1.370641
				CHANNELS 6 Xposition Yposition Zposition Xrotation Yrotation Zrotation
				JOINT mixamorig:Neck
				{
					OFFSET 0.000001 16.740417 -2.049036
					CHANNELS 6 Xposition Yposition Zposition Xrotation Yrotation Zrotation
					JOINT mixamorig:Head
					{
						OFFSET 0.000000 9.617874 1.685006
						CHANNELS 6 Xposition Yposition Zposition Xrotation Yrotation Zrotation
						JOINT mixamorig:HeadTop_End
						{
							OFFSET 0.000002 22.037354 7.501101
							CHANNELS 6 Xposition Yposition Zposition Xrotation Yrotation Zrotation
							End Site
							{
								OFFSET 0.000168 2310.654297 -282.823242
							}
						}
					}
				}
				JOINT mixamorig:RightShoulder
				{
					OFFSET -4.569970 11.014908 -2.160885
					CHANNELS 6 Xposition Yposition Zposition Xrotation Yrotation Zrotation
					JOINT mixamorig:RightArm
					{
						OFFSET -10.592851 -0.524811 -2.232101
						CHANNELS 6 Xposition Yposition Zposition Xrotation Yrotation Zrotation
						JOINT mixamorig:RightForeArm
						{
							OFFSET -27.841511 0.000031 -0.000004
							CHANNELS 6 Xposition Yposition Zposition Xrotation Yrotation Zrotation
							JOINT mixamorig:RightHand
							{
								OFFSET -28.328831 -0.000015 0.000015
								CHANNELS 6 Xposition Yposition Zposition Xrotation Yrotation Zrotation
								JOINT mixamorig:RightHandThumb1
								{
									OFFSET -2.464806 -1.573990 2.681852
									CHANNELS 6 Xposition Yposition Zposition Xrotation Yrotation Zrotation
									JOINT mixamorig:RightHandThumb2
									{
										OFFSET -3.215179 -1.872803 1.924282
										CHANNELS 6 Xposition Yposition Zposition Xrotation Yrotation Zrotation
										JOINT mixamorig:RightHandThumb3
										{
											OFFSET -2.654831 -1.527969 1.512609
											CHANNELS 6 Xposition Yposition Zposition Xrotation Yrotation Zrotation
											JOINT mixamorig:RightHandThumb4
											{
												OFFSET -2.018814 -1.152008 1.108052
												CHANNELS 6 Xposition Yposition Zposition Xrotation Yrotation Zrotation
												End Site
												{
													OFFSET -188.809540 -114.533607 132.431396
												}
											}
										}
									}
								}
								JOINT mixamorig:RightHandIndex1
								{
									OFFSET -9.108284 -0.517868 2.259835
									CHANNELS 6 Xposition Yposition Zposition Xrotation Yrotation Zrotation
									JOINT mixamorig:RightHandIndex2
									{
										OFFSET -3.699989 0.000000 0.001215
										CHANNELS 6 Xposition Yposition Zposition Xrotation Yrotation Zrotation
										JOINT mixamorig:RightHandIndex3
										{
											OFFSET -2.850006 0.000031 -0.000522
											CHANNELS 6 Xposition Yposition Zposition Xrotation Yrotation Zrotation
											JOINT mixamorig:RightHandIndex4
											{
												OFFSET -2.772186 -0.000015 -0.000020
												CHANNELS 6 Xposition Yposition Zposition Xrotation Yrotation Zrotation
												End Site
												{
													OFFSET -277.218445 0.000000 -0.050231
												}
											}
										}
									}
								}
								JOINT mixamorig:RightHandMiddle1
								{
									OFFSET -9.532516 -0.000031 -0.000023
									CHANNELS 6 Xposition Yposition Zposition Xrotation Yrotation Zrotation
									JOINT mixamorig:RightHandMiddle2
									{
										OFFSET -3.700005 -0.000015 0.003713
										CHANNELS 6 Xposition Yposition Zposition Xrotation Yrotation Zrotation
										JOINT mixamorig:RightHandMiddle3
										{
											OFFSET -2.949974 0.000015 -0.002054
											CHANNELS 6 Xposition Yposition Zposition Xrotation Yrotation Zrotation
											JOINT mixamorig:RightHandMiddle4
											{
												OFFSET -2.946640 0.000000 -0.000156
												CHANNELS 6 Xposition Yposition Zposition Xrotation Yrotation Zrotation
												End Site
												{
													OFFSET -294.664337 0.000000 -0.113670
												}
											}
										}
									}
								}
								JOINT mixamorig:RightHandRing1
								{
									OFFSET -9.103600 -0.043076 -1.865134
									CHANNELS 6 Xposition Yposition Zposition Xrotation Yrotation Zrotation
									JOINT mixamorig:RightHandRing2
									{
										OFFSET -3.379288 0.000000 -0.001055
										CHANNELS 6 Xposition Yposition Zposition Xrotation Yrotation Zrotation
										JOINT mixamorig:RightHandRing3
										{
											OFFSET -2.889687 -0.000015 0.000379
											CHANNELS 6 Xposition Yposition Zposition Xrotation Yrotation Zrotation
											JOINT mixamorig:RightHandRing4
											{
												OFFSET -2.638809 -0.000015 0.000941
												CHANNELS 6 Xposition Yposition Zposition Xrotation Yrotation Zrotation
												End Site
												{
													OFFSET -263.880371 0.000000 0.516020
												}
											}
										}
									}
								}
								JOINT mixamorig:RightHandPinky1
								{
									OFFSET -8.076683 -0.486710 -3.806280
									CHANNELS 6 Xposition Yposition Zposition Xrotation Yrotation Zrotation
									JOINT mixamorig:RightHandPinky2
									{
										OFFSET -3.600014 -0.000015 -0.003747
										CHANNELS 6 Xposition Yposition Zposition Xrotation Yrotation Zrotation
										JOINT mixamorig:RightHandPinky3
										{
											OFFSET -2.099983 0.000000 -0.005739
											CHANNELS 6 Xposition Yposition Zposition Xrotation Yrotation Zrotation
											JOINT mixamorig:RightHandPinky4
											{
												OFFSET -2.115768 -0.000031 -0.003680
												CHANNELS 6 Xposition Yposition Zposition Xrotation Yrotation Zrotation
												End Site
												{
													OFFSET -211.577087 0.000000 -0.350686
												}
											}
										}
									}
								}
							}
						}
					}
				}
				JOINT mixamorig:LeftShoulder
				{
					OFFSET 4.570447 11.014725 -2.160855
					CHANNELS 6 Xposition Yposition Zposition Xrotation Yrotation Zrotation
					JOINT mixamorig:LeftArm
					{
						OFFSET 10.592371 -0.524597 -2.232119
						CHANNELS 6 Xposition Yposition Zposition Xrotation Yrotation Zrotation
						JOINT mixamorig:LeftForeArm
						{
							OFFSET 27.841532 -0.000031 0.000026
							CHANNELS 6 Xposition Yposition Zposition Xrotation Yrotation Zrotation
							JOINT mixamorig:LeftHand
							{
								OFFSET 28.328846 -0.000061 0.000022
								CHANNELS 6 Xposition Yposition Zposition Xrotation Yrotation Zrotation
								JOINT mixamorig:LeftHandThumb1
								{
									OFFSET 2.466141 -1.576172 2.681732
									CHANNELS 6 Xposition Yposition Zposition Xrotation Yrotation Zrotation
									JOINT mixamorig:LeftHandThumb2
									{
										OFFSET 3.217812 -1.872070 1.916482
										CHANNELS 6 Xposition Yposition Zposition Xrotation Yrotation Zrotation
										JOINT mixamorig:LeftHandThumb3
										{
											OFFSET 2.656029 -1.528778 1.514513
											CHANNELS 6 Xposition Yposition Zposition Xrotation Yrotation Zrotation
											JOINT mixamorig:LeftHandThumb4
											{
												OFFSET 2.020889 -1.154053 1.115139
												CHANNELS 6 Xposition Yposition Zposition Xrotation Yrotation Zrotation
												End Site
												{
													OFFSET 190.885437 -115.081749 130.048782
												}
											}
										}
									}
								}
								JOINT mixamorig:LeftHandIndex1
								{
									OFFSET 9.109314 -0.518021 2.259871
									CHANNELS 6 Xposition Yposition Zposition Xrotation Yrotation Zrotation
									JOINT mixamorig:LeftHandIndex2
									{
										OFFSET 3.699989 0.000000 -0.000322
										CHANNELS 6 Xposition Yposition Zposition Xrotation Yrotation Zrotation
										JOINT mixamorig:LeftHandIndex3
										{
											OFFSET 2.850006 0.000000 0.000352
											CHANNELS 6 Xposition Yposition Zposition Xrotation Yrotation Zrotation
											JOINT mixamorig:LeftHandIndex4
											{
												OFFSET 2.774864 -0.000031 -0.000027
												CHANNELS 6 Xposition Yposition Zposition Xrotation Yrotation Zrotation
												End Site
												{
													OFFSET 277.486267 0.000000 -0.009857
												}
											}
										}
									}
								}
								JOINT mixamorig:LeftHandMiddle1
								{
									OFFSET 9.533394 0.000061 0.000044
									CHANNELS 6 Xposition Yposition Zposition Xrotation Yrotation Zrotation
									JOINT mixamorig:LeftHandMiddle2
									{
										OFFSET 3.699989 -0.000015 -0.000231
										CHANNELS 6 Xposition Yposition Zposition Xrotation Yrotation Zrotation
										JOINT mixamorig:LeftHandMiddle3
										{
											OFFSET 2.949997 -0.000015 -0.000059
											CHANNELS 6 Xposition Yposition Zposition Xrotation Yrotation Zrotation
											JOINT mixamorig:LeftHandMiddle4
											{
												OFFSET 2.952896 0.000031 0.000063
												CHANNELS 6 Xposition Yposition Zposition Xrotation Yrotation Zrotation
												End Site
												{
													OFFSET 295.289337 0.000000 0.022810
												}
											}
										}
									}
								}
								JOINT mixamorig:LeftHandRing1
								{
									OFFSET 9.104523 -0.042999 -1.865074
									CHANNELS 6 Xposition Yposition Zposition Xrotation Yrotation Zrotation
									JOINT mixamorig:LeftHandRing2
									{
										OFFSET 3.150009 -0.000031 0.000043
										CHANNELS 6 Xposition Yposition Zposition Xrotation Yrotation Zrotation
										JOINT mixamorig:LeftHandRing3
										{
											OFFSET 2.949982 -0.000015 0.000040
											CHANNELS 6 Xposition Yposition Zposition Xrotation Yrotation Zrotation
											JOINT mixamorig:LeftHandRing4
											{
												OFFSET 2.644348 0.000000 0.000057
												CHANNELS 6 Xposition Yposition Zposition Xrotation Yrotation Zrotation
												End Site
												{
													OFFSET 264.434631 0.000000 0.012105
												}
											}
										}
									}
								}
								JOINT mixamorig:LeftHandPinky1
								{
									OFFSET 8.077789 -0.486847 -3.806259
									CHANNELS 6 Xposition Yposition Zposition Xrotation Yrotation Zrotation
									JOINT mixamorig:LeftHandPinky2
									{
										OFFSET 3.599953 0.000031 0.014727
										CHANNELS 6 Xposition Yposition Zposition Xrotation Yrotation Zrotation
										JOINT mixamorig:LeftHandPinky3
										{
											OFFSET 2.100021 0.000015 0.007705
											CHANNELS 6 Xposition Yposition Zposition Xrotation Yrotation Zrotation
											JOINT mixamorig:LeftHandPinky4
											{
												OFFSET 2.125504 0.000031 0.007517
												CHANNELS 6 Xposition Yposition Zposition Xrotation Yrotation Zrotation
												End Site
												{
													OFFSET 212.550781 0.000000 0.625752
												}
											}
										}
									}
								}
							}
						}
					}
				}
			}
		}
	}
	JOINT mixamorig:RightUpLeg
	{
		OFFSET -8.207787 -6.751648 -1.599560
		CHANNELS 6 Xposition Yposition Zposition Xrotation Yrotation Zrotation
		JOINT mixamorig:RightLeg
		{
			OFFSET -0.000002 -44.370117 0.345942
			CHANNELS 6 Xposition Yposition Zposition Xrotation Yrotation Zrotation
			JOINT mixamorig:RightFoot
			{
				OFFSET 0.000003 -44.423679 -3.043532
				CHANNELS 6 Xposition Yposition Zposition Xrotation Yrotation Zrotation
				JOINT mixamorig:RightToeBase
				{
					OFFSET -0.000002 -8.728671 10.710558
					CHANNELS 6 Xposition Yposition Zposition Xrotation Yrotation Zrotation
					JOINT mixamorig:RightToe_End
					{
						OFFSET -0.000001 -0.000679 9.278119
						CHANNELS 6 Xposition Yposition Zposition Xrotation Yrotation Zrotation
						End Site
						{
							OFFSET 0.000000 -0.067690 927.812134
						}
					}
				}
			}
		}
	}
	JOINT mixamorig:LeftUpLeg
	{
		OFFSET 8.207793 -6.751686 -1.599556
		CHANNELS 6 Xposition Yposition Zposition Xrotation Yrotation Zrotation
		JOINT mixamorig:LeftLeg
		{
			OFFSET -0.000004 -44.370014 0.346954
			CHANNELS 6 Xposition Yposition Zposition Xrotation Yrotation Zrotation
			JOINT mixamorig:LeftFoot
			{
				OFFSET -0.000001 -44.423672 -3.044401
				CHANNELS 6 Xposition Yposition Zposition Xrotation Yrotation Zrotation
				JOINT mixamorig:LeftToeBase
				{
					OFFSET -0.000002 -8.728669 10.710558
					CHANNELS 6 Xposition Yposition Zposition Xrotation Yrotation Zrotation
					JOINT mixamorig:LeftToe_End
					{
						OFFSET -0.000003 -0.000679 9.278133
						CHANNELS 6 Xposition Yposition Zposition Xrotation Yrotation Zrotation
						End Site
						{
							OFFSET 0.000000 -0.068021 927.813477
						}
					}
				}
			}
		}
	}
}
MOTION
Frames: 3
Frame Time: 0.033333
0.000006 104.270477 1.554256 0.000010 0.000003 -0.000113 -0.000005 10.181587 0.131522 0.000001 -0.000003 0.000084 -0.000000 9.893967 -1.470711 0.000001 0.000000 -0.000000 -0.000000 9.220802 -1.370642 0.000000 -0.000000 -0.000000 0.000001 16.740433 -2.049030 0.000000 -0.000000 -0.000000 0.000000 9.617859 1.685014 0.000000 0.000000 0.000000 0.000002 22.037384 7.501101 0.000000 -0.000000 0.000000 -4.569968 11.014880 -2.160881 0.000008 0.000001 -0.000038 -10.592877 -0.524749 -2.231921 74.197240 26.530734 -20.217971 -27.841526 0.000009 0.000555 -54.905913 110.552670 73.712296 -28.328808 0.000007 0.000024 -0.000325 -0.000045 0.000008 -2.464427 -1.573875 2.682371 -34.929564 -156.976230 18.708091 -3.215271 -1.872564 1.924624 154.301487 33.384800 15.044718 -2.654966 -1.527922 1.513094 151.553947 25.936016 -37.670853 -2.018845 -1.152018 1.108044 -0.000000 -0.000003 0.000000 -9.108397 -0.517560 2.260134 99.812983 17.270437 -20.506482 -3.700078 0.000318 0.001519 95.689420 15.020409 -16.543978 -2.850078 0.000356 -0.000255 94.584439 12.328631 -13.346832 -2.772178 -0.000019 -0.000018 -0.000003 -0.000000 -0.000000 -9.532596 0.000275 0.000246 95.456326 14.655469 -16.257795 -3.700073 0.000340 0.003978 95.290045 11.718935 -12.741823 -2.950048 0.000339 -0.001827 94.447268 11.363556 -12.267284 -2.946628 0.000002 -0.000156 0.000004 -0.000000 -0.000002 -9.103704 -0.042740 -1.864863 93.820831 15.417762 -16.420803 -3.379312 0.000332 -0.000805 95.672236 8.564655 -9.472495 -2.889746 0.000354 0.000643 97.521789 6.268233 -7.199606 -2.638814 0.000001 0.000943 -0.000001 0.000000 0.000002 -8.076756 -0.486374 -3.806033 85.429315 15.450351 -14.139888 -3.600040 0.000285 -0.003531 88.711726 7.670351 -7.156631 -2.100017 0.000319 -0.005490 89.430727 4.654206 -4.394122 -2.115775 -0.000026 -0.003679 -0.000005 -0.000000 -0.000000 4.570446 11.014691 -2.160851 -0.000018 0.000010 -0.000021 10.592382 -0.524495 -2.232334 72.152582 -5.245474 3.823084 27.841820 0.000063 -0.000219 97.402814 -70.585565 77.721727 28.328846 -0.000044 0.000028 0.000018 -0.000089 0.000000 2.466235 -1.576099 2.681846 0.727394 162.057358 -85.495021 3.217870 -1.871804 1.916411 165.340274 -23.900818 32.007885 2.656106 -1.528680 1.514482 135.829008 -28.847092 58.128598 2.020895 -1.154081 1.115146 -0.000002 0.000000 0.000001 9.109394 -0.517890 2.259731 75.771223 -18.556038 14.477815 3.700035 0.000124 -0.000469 74.125161 -17.998315 13.655320 2.850054 0.000143 0.000214 71.928183 -14.737955 10.720620 2.774889 -0.000013 -0.000026 -0.000000 -0.000002 -0.000001 9.533479 0.000171 -0.000088 74.818951 -16.934525 12.984088 3.700052 0.000141 -0.000387 78.938866 -15.135602 12.484309 2.950065 0.000124 -0.000200 78.506720 -18.095066 14.829471 2.952855 0.000002 0.000062 -0.000001 0.000003 -0.000002 9.104599 -0.042888 -1.865218 72.476134 -15.682620 11.528658 3.150046 0.000163 -0.000101 80.167802 -12.309112 10.372497 2.950022 0.000157 -0.000065 81.638082 -13.791298 11.928481 2.644335 0.000030 0.000060 0.000000 0.000000 -0.000001 8.077856 -0.486760 -3.806412 65.307339 -15.933534 10.635565 3.599991 0.000152 0.014555 68.204719 -12.840353 9.063928 2.100020 0.000154 0.007551 71.938339 -12.341138 9.328548 2.125517 -0.000013 0.007512 -0.000004 0.000002 0.000000 -8.207786 -6.751667 -1.599560 -0.077001 -0.000003 0.000080 -0.000002 -44.370110 0.345938 0.153719 -0.000000 -0.000000 0.000000 -44.423679 -3.043532 -0.076700 0.000000 -0.000002 -0.000006 -8.728667 10.710559 -0.000009 -0.000000 -0.000000 -0.000001 -0.000679 9.278123 0.000000 -0.000000 -0.000000 8.207792 -6.751710 -1.599556 -0.074518 -0.000003 0.000081 -0.000002 -44.370014 0.346960 0.148822 0.000002 0.000000 -0.000001 -44.423664 -3.044403 -0.074314 0.000000 -0.000002 -0.000004 -8.728671 10.710558 0.000007 -0.000000 -0.000000 0.000000 -0.000680 9.278137 -0.000000 0.000000 -0.000001 
0.000006 104.270477 1.554256 0.000010 0.000003 -0.000113 -0.000005 10.181587 0.131522 0.000001 -0.000003 0.000084 -0.000000 9.893967 -1.470711 0.000001 0.000000 -0.000000 -0.000000 9.220802 -1.370642 0.000000 -0.000000 -0.000000 0.000001 16.740433 -2.049030 0.000000 -0.000000 -0.000000 0.000000 9.617859 1.685014 0.000000 0.000000 0.000000 0.000002 22.037384 7.501101 0.000000 -0.000000 0.000000 -4.569968 11.014880 -2.160881 0.000008 0.000001 -0.000038 -10.592865 -0.524772 -2.231884 75.226904 33.361485 -26.000454 -27.841526 0.000016 0.000551 -50.382907 106.553990 64.465859 -28.328833 -0.000007 0.000032 -0.000324 -0.000045 0.000006 -2.464386 -1.573808 2.682334 -45.489019 -160.307163 -4.317032 -3.215260 -1.872540 1.924630 149.843504 33.277153 21.480108 -2.654970 -1.527873 1.513067 148.730333 27.459514 -28.986158 -2.018833 -1.151999 1.108074 -0.000003 0.000003 0.000002 -9.108370 -0.517565 2.260119 97.750942 16.992054 -19.471013 -3.700065 0.000309 0.001509 96.347181 14.608450 -16.275031 -2.850082 0.000357 -0.000268 95.371892 12.048993 -13.224070 -2.772171 -0.000015 -0.000018 -0.000002 0.000001 -0.000000 -9.532568 0.000271 0.000250 93.988690 16.893715 -18.246674 -3.700072 0.000322 0.003986 95.879866 13.230059 -14.541707 -2.950060 0.000330 -0.001788 97.865382 12.487214 -14.304733 -2.946636 0.000002 -0.000154 -0.000000 0.000000 0.000001 -9.103694 -0.042772 -1.864865 91.310825 18.476997 -18.850818 -3.379357 0.000296 -0.000799 94.269444 10.885358 -11.741578 -2.889762 0.000347 0.000672 100.735195 7.776330 -9.438177 -2.638806 -0.000003 0.000938 0.000000 0.000000 0.000002 -8.076742 -0.486416 -3.806021 82.384485 19.462206 -16.935760 -3.600031 0.000269 -0.003536 85.542833 10.473885 -9.355659 -2.100016 0.000296 -0.005502 90.431957 6.167460 -5.991400 -2.115779 -0.000028 -0.003682 -0.000006 0.000000 -0.000002 4.570446 11.014691 -2.160851 -0.000018 0.000010 -0.000021 10.592392 -0.524487 -2.232345 71.543622 -10.860446 7.836057 27.841822 0.000054 -0.000203 99.377934 -72.954309 82.142129 28.328815 -0.000028 0.000021 0.000022 -0.000089 0.000000 2.466250 -1.575862 2.681783 17.484777 194.187947 -143.468178 3.217864 -1.871915 1.916465 164.176492 -14.627420 64.493542 2.656092 -1.528712 1.514521 138.641147 -27.452154 68.296393 2.020898 -1.154070 1.115134 0.000003 -0.000000 0.000003 9.109396 -0.517902 2.259759 76.072161 -24.295109 19.106092 3.700038 0.000127 -0.000442 73.102613 -15.091561 11.230294 2.850027 0.000151 0.000218 72.720840 -10.964936 8.082707 2.774882 -0.000047 -0.000030 -0.000002 -0.000002 -0.000001 9.533478 0.000182 -0.000072 74.860506 -22.560689 17.353052 3.700044 0.000151 -0.000363 78.651814 -11.763998 9.646543 2.950045 0.000145 -0.000211 79.532225 -10.727137 8.937196 2.952855 -0.000015 0.000064 -0.000001 -0.000000 0.000001 9.104607 -0.042894 -1.865203 75.728903 -21.622723 16.891935 3.150059 0.000172 -0.000108 78.916921 -12.741790 10.503472 2.950014 0.000161 -0.000103 79.204246 -9.514742 7.879005 2.644326 0.000044 0.000059 -0.000000 -0.000001 -0.000000 8.077859 -0.486748 -3.806392 67.695268 -21.734365 15.100589 3.600011 0.000124 0.014595 67.201931 -17.209555 11.845256 2.100023 0.000149 0.007551 69.931930 -12.205878 8.895637 2.125489 -0.000014 0.007518 -0.000001 -0.000002 -0.000000 -8.207786 -6.751667 -1.599560 -0.077001 -0.000003 0.000080 -0.000002 -44.370110 0.345938 0.153719 -0.000000 -0.000000 0.000000 -44.423679 -3.043532 -0.076700 0.000000 -0.000002 -0.000006 -8.728667 10.710559 -0.000009 -0.000000 -0.000000 -0.000001 -0.000679 9.278123 0.000000 -0.000000 -0.000000 8.207792 -6.751710 -1.599556 -0.074518 -0.000003 0.000081 -0.000002 -44.370014 0.346960 0.148822 0.000002 0.000000 -0.000001 -44.423664 -3.044403 -0.074314 0.000000 -0.000002 -0.000004 -8.728671 10.710558 0.000007 -0.000000 -0.000000 0.000000 -0.000680 9.278137 -0.000000 0.000000 -0.000001 
0.000006 104.270477 1.554256 0.000010 0.000003 -0.000113 -0.000005 10.181587 0.131522 0.000001 -0.000003 0.000084 -0.000000 9.893967 -1.470711 0.000001 0.000000 -0.000000 -0.000000 9.220802 -1.370642 0.000000 -0.000000 -0.000000 0.000001 16.740433 -2.049030 0.000000 -0.000000 -0.000000 0.000000 9.617859 1.685014 0.000000 0.000000 0.000000 0.000002 22.037384 7.501101 0.000000 -0.000000 0.000000 -4.569968 11.014880 -2.160881 0.000008 0.000001 -0.000038 -10.592859 -0.524796 -2.231840 75.325341 41.172510 -32.334522 -27.841536 0.000003 0.000555 -50.068370 104.411476 62.114430 -28.328815 0.000022 0.000033 -0.000315 -0.000045 0.000008 -2.464401 -1.573804 2.682327 -45.747723 -160.255212 -4.952837 -3.215252 -1.872517 1.924610 149.570119 33.374268 22.773113 -2.654944 -1.527868 1.513058 148.872347 27.411474 -29.257337 -2.018836 -1.152015 1.108058 -0.000001 -0.000007 0.000006 -9.108382 -0.517560 2.260144 97.718471 17.179936 -19.673781 -3.700057 0.000316 0.001505 96.256838 14.933867 -16.611082 -2.850086 0.000368 -0.000261 95.773452 12.327552 -13.624055 -2.772168 -0.000016 -0.000020 0.000000 -0.000002 -0.000001 -9.532595 0.000257 0.000248 93.950181 17.332966 -18.704287 -3.700068 0.000318 0.003989 95.857532 13.592780 -14.936265 -2.950070 0.000319 -0.001803 98.118413 12.632648 -14.534986 -2.946645 0.000001 -0.000151 0.000001 -0.000001 -0.000001 -9.103706 -0.042766 -1.864862 91.221145 19.200913 -19.560224 -3.379338 0.000307 -0.000797 94.892091 11.199315 -12.210828 -2.889741 0.000335 0.000684 101.412723 7.857819 -9.651484 -2.638793 -0.000016 0.000944 0.000001 0.000002 0.000002 -8.076759 -0.486399 -3.806019 82.446455 19.947226 -17.381254 -3.600033 0.000293 -0.003529 85.928684 10.534633 -9.475180 -2.100016 0.000320 -0.005484 90.438747 6.078459 -5.902708 -2.115768 -0.000054 -0.003679 -0.000006 -0.000001 -0.000000 4.570446 11.014691 -2.160851 -0.000018 0.000010 -0.000021 10.592420 -0.524483 -2.232369 71.017479 -20.588996 14.768667 27.841818 0.000038 -0.000193 98.992650 -77.632941 86.567764 28.328823 -0.000026 0.000022 0.000021 -0.000089 -0.000000 2.466237 -1.575890 2.681804 26.181006 189.041263 -140.458592 3.217876 -1.871917 1.916476 165.513638 -12.851478 67.515177 2.656100 -1.528719 1.514531 134.779508 -29.261015 68.511203 2.020882 -1.154084 1.115149 0.000001 -0.000000 0.000006 9.109397 -0.517935 2.259767 68.600740 -29.607115 20.429200 3.700063 0.000098 -0.000458 70.726452 -18.263967 13.029481 2.850056 0.000149 0.000220 73.015200 -13.540315 10.042207 2.774882 -0.000014 -0.000021 -0.000002 -0.000002 -0.000001 9.533472 0.000124 -0.000065 65.739594 -26.140070 17.056625 3.700063 0.000133 -0.000376 74.536536 -15.580780 11.884388 2.950054 0.000131 -0.000207 76.809480 -13.405323 10.647127 2.952866 -0.000014 0.000061 0.000002 -0.000001 -0.000000 9.104589 -0.042926 -1.865204 67.243117 -23.236613 15.571204 3.150046 0.000155 -0.000093 73.832692 -15.178554 11.433668 2.950013 0.000152 -0.000079 75.294332 -10.490619 8.103135 2.644311 0.000031 0.000057 -0.000001 0.000002 -0.000000 8.077839 -0.486769 -3.806400 65.400946 -22.412801 14.912694 3.599995 0.000123 0.014580 65.684201 -17.889398 11.958819 2.100047 0.000141 0.007564 69.712947 -12.996946 9.417603 2.125512 -0.000001 0.007517 -0.000003 0.000001 -0.000000 -8.207786 -6.751667 -1.599560 -0.077001 -0.000003 0.000080 -0.000002 -44.370110 0.345938 0.153719 -0.000000 -0.000000 0.000000 -44.423679 -3.043532 -0.076700 0.000000 -0.000002 -0.000006 -8.728667 10.710559 -0.000009 -0.000000 -0.000000 -0.000001 -0.000679 9.278123 0.000000 -0.000000 -0.000000 8.207792 -6.751710 -1.599556 -0.074518 -0.000003 0.000081 -0.000002 -44.370014 0.346960 0.148822 0.000002 0.000000 -0.000001 -44.423664 -3.044403 -0.074314 0.000000 -0.000002 -0.000004 -8.728671 10.710558 0.000007 -0.000000 -0.000000 0.000000 -0.000680 9.278137 -0.000000 0.000000 -0.000001 
